<svg width="322" height="47" viewBox="0 0 322 47" fill="none" xmlns="http://www.w3.org/2000/svg">
<path d="M19.032 46.768C15.4907 46.768 12.056 46.2987 8.728 45.36C5.44267 44.3787 2.79733 43.12 0.792 41.584L4.312 33.776C6.232 35.184 8.51467 36.3147 11.16 37.168C13.8053 38.0213 16.4507 38.448 19.096 38.448C22.04 38.448 24.216 38.0213 25.624 37.168C27.032 36.272 27.736 35.0987 27.736 33.648C27.736 32.5813 27.3093 31.7067 26.456 31.024C25.6453 30.2987 24.5787 29.7227 23.256 29.296C21.976 28.8693 20.2267 28.4 18.008 27.888C14.5947 27.0773 11.8 26.2667 9.624 25.456C7.448 24.6453 5.57067 23.344 3.992 21.552C2.456 19.76 1.688 17.3707 1.688 14.384C1.688 11.7813 2.392 9.43467 3.8 7.344C5.208 5.21066 7.32 3.52533 10.136 2.288C12.9947 1.05067 16.472 0.431999 20.568 0.431999C23.4267 0.431999 26.2213 0.773332 28.952 1.456C31.6827 2.13867 34.072 3.12 36.12 4.4L32.92 12.272C28.7813 9.92533 24.6427 8.752 20.504 8.752C17.6027 8.752 15.448 9.22133 14.04 10.16C12.6747 11.0987 11.992 12.336 11.992 13.872C11.992 15.408 12.7813 16.56 14.36 17.328C15.9813 18.0533 18.4347 18.7787 21.72 19.504C25.1333 20.3147 27.928 21.1253 30.104 21.936C32.28 22.7467 34.136 24.0267 35.672 25.776C37.2507 27.5253 38.04 29.8933 38.04 32.88C38.04 35.44 37.3147 37.7867 35.864 39.92C34.456 42.0107 32.3227 43.6747 29.464 44.912C26.6053 46.1493 23.128 46.768 19.032 46.768ZM61.7645 38.512C63.5565 38.512 65.1352 38.256 66.5005 37.744C67.9085 37.1893 69.2098 36.336 70.4045 35.184L75.7165 40.944C72.4738 44.656 67.7378 46.512 61.5085 46.512C57.6258 46.512 54.1912 45.7653 51.2045 44.272C48.2178 42.736 45.9138 40.624 44.2925 37.936C42.6712 35.248 41.8605 32.1973 41.8605 28.784C41.8605 25.4133 42.6498 22.384 44.2285 19.696C45.8498 16.9653 48.0472 14.8533 50.8205 13.36C53.6365 11.824 56.7938 11.056 60.2925 11.056C63.5778 11.056 66.5645 11.76 69.2525 13.168C71.9405 14.5333 74.0738 16.5387 75.6525 19.184C77.2738 21.7867 78.0845 24.88 78.0845 28.464L52.6125 33.392C53.3378 35.0987 54.4685 36.3787 56.0045 37.232C57.5832 38.0853 59.5032 38.512 61.7645 38.512ZM60.2925 18.608C57.7752 18.608 55.7272 19.4187 54.1485 21.04C52.5698 22.6613 51.7378 24.9013 51.6525 27.76L68.4205 24.496C67.9512 22.704 66.9912 21.2747 65.5405 20.208C64.0898 19.1413 62.3405 18.608 60.2925 18.608ZM119.484 11.568V46H110.012V41.904C108.689 43.3973 107.11 44.5493 105.276 45.36C103.441 46.128 101.457 46.512 99.3235 46.512C94.8008 46.512 91.2168 45.2107 88.5715 42.608C85.9262 40.0053 84.6035 36.144 84.6035 31.024V11.568H94.5875V29.552C94.5875 35.0987 96.9128 37.872 101.564 37.872C103.953 37.872 105.873 37.104 107.324 35.568C108.774 33.9893 109.5 31.664 109.5 28.592V11.568H119.484ZM148.829 1.2C152.797 1.2 156.232 1.86133 159.133 3.184C162.077 4.50667 164.338 6.384 165.917 8.816C167.496 11.248 168.285 14.128 168.285 17.456C168.285 20.7413 167.496 23.6213 165.917 26.096C164.338 28.528 162.077 30.4053 159.133 31.728C156.232 33.008 152.797 33.648 148.829 33.648H139.805V46H129.437V1.2H148.829ZM148.253 25.2C151.368 25.2 153.736 24.5387 155.357 23.216C156.978 21.8507 157.789 19.9307 157.789 17.456C157.789 14.9387 156.978 13.0187 155.357 11.696C153.736 10.3307 151.368 9.648 148.253 9.648H139.805V25.2H148.253ZM191.305 46.512C187.678 46.512 184.414 45.7653 181.513 44.272C178.654 42.736 176.414 40.624 174.793 37.936C173.171 35.248 172.361 32.1973 172.361 28.784C172.361 25.3707 173.171 22.32 174.793 19.632C176.414 16.944 178.654 14.8533 181.513 13.36C184.414 11.824 187.678 11.056 191.305 11.056C194.931 11.056 198.174 11.824 201.033 13.36C203.891 14.8533 206.131 16.944 207.753 19.632C209.374 22.32 210.185 25.3707 210.185 28.784C210.185 32.1973 209.374 35.248 207.753 37.936C206.131 40.624 203.891 42.736 201.033 44.272C198.174 45.7653 194.931 46.512 191.305 46.512ZM191.305 38.32C193.865 38.32 195.955 37.4667 197.577 35.76C199.241 34.0107 200.073 31.6853 200.073 28.784C200.073 25.8827 199.241 23.5787 197.577 21.872C195.955 20.1227 193.865 19.248 191.305 19.248C188.745 19.248 186.633 20.1227 184.969 21.872C183.305 23.5787 182.473 25.8827 182.473 28.784C182.473 31.6853 183.305 34.0107 184.969 35.76C186.633 37.4667 188.745 38.32 191.305 38.32ZM237.786 11.056C242.053 11.056 245.487 12.336 248.09 14.896C250.735 17.456 252.058 21.2533 252.058 26.288V46H242.074V27.824C242.074 25.0933 241.477 23.0667 240.282 21.744C239.087 20.3787 237.359 19.696 235.098 19.696C232.581 19.696 230.575 20.4853 229.082 22.064C227.589 23.6 226.842 25.904 226.842 28.976V46H216.858V11.568H226.394V15.6C227.717 14.1493 229.359 13.04 231.322 12.272C233.285 11.4613 235.439 11.056 237.786 11.056ZM281.844 44.336C280.863 45.0613 279.647 45.616 278.196 46C276.788 46.3413 275.316 46.512 273.78 46.512C269.641 46.512 266.463 45.4667 264.244 43.376C262.025 41.2853 260.916 38.2133 260.916 34.16V3.952H270.9V12.336H279.412V20.016H270.9V34.032C270.9 35.4827 271.263 36.6133 271.988 37.424C272.713 38.192 273.759 38.576 275.124 38.576C276.66 38.576 278.025 38.1493 279.22 37.296L281.844 44.336ZM302.805 46.512C299.178 46.512 295.914 45.7653 293.013 44.272C290.154 42.736 287.914 40.624 286.293 37.936C284.671 35.248 283.861 32.1973 283.861 28.784C283.861 25.3707 284.671 22.32 286.293 19.632C287.914 16.944 290.154 14.8533 293.013 13.36C295.914 11.824 299.178 11.056 302.805 11.056C306.431 11.056 309.674 11.824 312.533 13.36C315.391 14.8533 317.631 16.944 319.253 19.632C320.874 22.32 321.685 25.3707 321.685 28.784C321.685 32.1973 320.874 35.248 319.253 37.936C317.631 40.624 315.391 42.736 312.533 44.272C309.674 45.7653 306.431 46.512 302.805 46.512ZM302.805 38.32C305.365 38.32 307.455 37.4667 309.077 35.76C310.741 34.0107 311.573 31.6853 311.573 28.784C311.573 25.8827 310.741 23.5787 309.077 21.872C307.455 20.1227 305.365 19.248 302.805 19.248C300.245 19.248 298.133 20.1227 296.469 21.872C294.805 23.5787 293.973 25.8827 293.973 28.784C293.973 31.6853 294.805 34.0107 296.469 35.76C298.133 37.4667 300.245 38.32 302.805 38.32Z" fill="url(#paint0_linear_3_56)"/>
<defs>
<linearGradient id="paint0_linear_3_56" x1="-1" y1="23" x2="324" y2="23" gradientUnits="userSpaceOnUse">
<stop stop-color="#9F4A0E"/>
<stop offset="1" stop-color="#CE9E16"/>
</linearGradient>
</defs>
</svg>
